<?xml version="1.0" encoding="UTF-8"?>
<svg width="24px" height="24px" viewBox="0 0 24 24" version="1.1" xmlns="http://www.w3.org/2000/svg" xmlns:xlink="http://www.w3.org/1999/xlink">
    <!-- Generator: Sketch 48.2 (47327) - http://www.bohemiancoding.com/sketch -->
    <title>icon-mute-gray</title>
    <desc>Created with Sketch.</desc>
    <defs></defs>
    <g id="assets" stroke="none" stroke-width="1" fill="none" fill-rule="evenodd" transform="translate(-153.000000, -146.000000)">
        <g id="Group-4-Copy-9" transform="translate(155.000000, 149.000000)" fill="#6A7786">
            <g id="Group-333">
                <path d="M12.5229008,18 C12.7862595,18 13,17.795413 13,17.5433327 L13,9 L6,15.5093363 C7.6851145,17.0428252 10.0715649,18 12.5229008,18" id="Fill-325"></path>
                <path d="M2.78571429,13 L13,3.37120222 L13,1.46150296 C13,1.20675333 12.792,1 12.5357143,1 C9.20214286,1 5.98371429,2.88385509 4.59271429,5.61502961 L2.78571429,5.61502961 C1.24985714,5.61502961 0,6.85739558 0,8.38404738 L0,10.2300592 C0,11.756711 1.24985714,13 2.78571429,13" id="Fill-326"></path>
                <path d="M16.9058986,5 L16.2435657,5.68111908 C19.146849,7.22589715 18.4047272,11.3562032 16.2907526,12.115424 C16.0659712,12.1962501 15.9467169,12.4541672 16.023074,12.6921048 C16.1020049,12.9382158 16.3550984,13.0544601 16.5661527,12.9754503 C19.6504622,11.8674966 19.8469314,6.48665591 16.9058986,5" id="Fill-327"></path>
                <path d="M17.8458977,0.265711796 L0.794129242,16.3822976 C0.373194159,16.7890044 0.429708591,17.4241874 0.800949949,17.7446231 C1.16731937,18.0840194 1.78702936,18.0868635 2.15145001,17.742727 L19.2032184,1.62614124 C19.5919987,1.25925191 19.5958963,0.656301992 19.2236805,0.285620519 C18.8690038,-0.0698924022 18.2580633,-0.112553953 17.8458977,0.265711796 Z" id="Fill-328"></path>
            </g>
        </g>
    </g>
</svg>