<?xml version="1.0" encoding="UTF-8"?>
<svg width="24px" height="24px" viewBox="0 0 24 24" version="1.1" xmlns="http://www.w3.org/2000/svg" xmlns:xlink="http://www.w3.org/1999/xlink">
    <!-- Generator: Sketch 48.2 (47327) - http://www.bohemiancoding.com/sketch -->
    <title>icon-clear-gray</title>
    <desc>Created with Sketch.</desc>
    <defs></defs>
    <g id="assets" stroke="none" stroke-width="1" fill="none" fill-rule="evenodd" transform="translate(-40.000000, -146.000000)">
        <g id="Group-4-Copy-10" transform="translate(41.000000, 147.000000)" fill="#6A7786">
            <g id="Group-26">
                <path d="M18.2608696,22 L4.56521739,22 C4.31321739,22 4.10869565,21.7946667 4.10869565,21.5416667 C4.10869565,21.2886667 4.31321739,21.0833333 4.56521739,21.0833333 L18.2608696,21.0833333 C18.5128696,21.0833333 18.7173913,21.2886667 18.7173913,21.5416667 C18.7173913,21.7946667 18.5128696,22 18.2608696,22" id="Fill-924"></path>
                <path d="M4.13544783,11.7304917 L1.58166522,14.3264917 C0.684143478,15.2257417 0.684143478,16.7492417 1.5624913,17.631075 L2.85353478,19.0959083 C2.94027391,19.1939917 3.06536087,19.2499083 3.19592609,19.2499083 L8.3601,19.2499083 C8.4861,19.2499083 8.6057087,19.198575 8.69153478,19.107825 L10.0519696,17.6704917 L4.13544783,11.7304917 Z" id="Fill-925"></path>
                <path d="M20.5541609,6.212525 L15.3890739,1.026025 C14.8531174,0.490691667 13.9884652,0.490691667 13.4525087,1.02694167 L4.43163913,10.0836083 C4.25359565,10.2623583 4.25359565,10.552025 4.43163913,10.730775 L10.8877696,17.2134417 C11.065813,17.3921917 11.3552478,17.3921917 11.5332913,17.2134417 L20.5541609,8.156775 C21.0928565,7.61685833 21.0864652,6.74510833 20.5541609,6.212525" id="Fill-926"></path>
            </g>
        </g>
    </g>
</svg>